<?xml version="1.0" encoding="UTF-8"?>
<svg id="Layer_1" xmlns="http://www.w3.org/2000/svg" version="1.1" viewBox="0 0 300 300">
  <!-- Generator: Adobe Illustrator 30.2.1, SVG Export Plug-In . SVG Version: 2.1.1 Build 1)  -->
  <defs>
    <style>
      .st0 {
        fill: #ae01fd;
      }

      .st1 {
        fill: #110236;
      }
    </style>
  </defs>
  <path class="st0" d="M106.11,245.28l-29.18-.1c-12.68-.04-24.11-8.14-24.16-21.86l-.2-53.21c-.01-2.99-1.83-5.63-4.76-5.94-3.51-.37-6.74-.13-10.33-.1l.02-27.4c4.96-.38,15.01,1.94,15.04-5.5l.24-53.83c.07-14.78,12.19-22.05,26.13-22.05h27.15s-.04,17.92-.04,17.92l-23.89.07c-3.28.01-5.95,2.31-6.27,5.57l-.17,53.6c-.02,7.31-3.23,13.42-9.34,17.8,5.9,4.12,9.32,10.52,9.34,17.96l.16,53.01c0,4.09,3.1,6.19,6.93,6.2l23.31.1.04,17.76Z"/>
  <path class="st1" d="M220.15,226.74c-6.99,1.44-13.58.84-20.36.79v-17.55c4.58-.85,15.17,2.15,15.18-6.28l.03-71.98-14.24-.3v-18.05s14.19-.24,14.19-.24l.21-16.87c.17-13.28,12.47-20.85,25.74-20.76l12.3.08v17.58s-9.67.3-9.67.3c-8.11.25-4.72,13.58-5.29,19.65l14.89.12.06,18.27-14.98.25-.21,73.83c-.03,10.89-7.14,18.96-17.86,21.16Z"/>
  <path class="st1" d="M192.8,127.33c1.48,17.07-9.43,28.78-26.45,29.96h-41.06s0-18.57,0-18.57l34.58-.1c2.21,0,4.3-.26,6.25-.93,3.94-1.35,5.8-4.76,5.44-8.66s-3.67-6.75-7.98-6.84l-16.58-.36c-7.42-.16-14.28-3.49-18.66-9.61-5.1-7.12-5.78-16.84-1.6-24.58s12.09-11.8,20.86-12.73l41.03-.07.05,18.53-37.12.24c-3.13.02-5.42,2.45-5.64,4.88-.97,10.95,16.33,3.13,31.23,8.38,9.03,3.18,14.8,10.91,15.63,20.46Z"/>
</svg>